<svg
          width="1371"
          height="136"
          viewBox="0 0 1371 136"
          fill="transparent"
          xmlns="http://www.w3.org/2000/svg"
        >
    <path
            d="M144.807 122.559C140.402 124.841 135.839 126.807 131.119 128.459C126.399 130.033 121.601 131.331 116.723 132.353C111.925 133.376 107.126 134.123 102.327 134.595C97.5286 135.067 92.8873 135.303 88.4033 135.303C75.3446 135.303 63.5446 133.966 53.0033 131.291C42.4619 128.538 33.4939 124.801 26.0992 120.081C18.7046 115.361 13.0012 109.815 8.98925 103.443C5.05591 97.0712 3.08925 90.2272 3.08925 82.9112C3.08925 75.5952 5.05591 68.7512 8.98925 62.3792C13.0012 56.0072 18.7046 50.4612 26.0992 45.7412C33.4939 41.0212 42.4619 37.3238 53.0033 34.6492C63.5446 31.8958 75.3446 30.5192 88.4033 30.5192C100.125 30.5192 110.666 31.6992 120.027 34.0592C129.389 36.4192 137.649 39.4872 144.807 43.2632V67.4532C141.582 64.6998 137.806 62.2218 133.479 60.0192C129.153 57.8165 124.511 55.9285 119.555 54.3552C114.678 52.7818 109.565 51.5625 104.215 50.6972C98.9446 49.8318 93.7133 49.3992 88.5213 49.3992C79.0812 49.3992 70.5852 50.2645 63.0332 51.9952C55.4812 53.7258 49.0306 56.1252 43.6813 59.1932C38.4106 62.1825 34.3592 65.7225 31.5272 69.8132C28.6952 73.9038 27.2792 78.2698 27.2792 82.9112C27.2792 87.5525 28.6952 91.9185 31.5272 96.0092C34.3592 100.1 38.4106 103.679 43.6813 106.747C49.0306 109.737 55.4812 112.097 63.0332 113.827C70.5852 115.558 79.0812 116.423 88.5213 116.423C93.7133 116.423 98.9446 115.991 104.215 115.125C109.486 114.26 114.56 113.041 119.437 111.467C124.315 109.894 128.877 108.006 133.125 105.803C137.373 103.522 141.11 101.005 144.335 98.2512L144.807 122.559ZM156.522 34.0592H179.178V74.1792H273.342V34.0592H295.998V131.763H273.342V93.6492H179.178V131.763H156.522V34.0592ZM379.517 34.0592H399.931L477.693 131.763H449.609L434.741 113.119H344.353L329.485 131.763H301.755L379.517 34.0592ZM359.929 93.6492H419.165L389.547 55.7712L359.929 93.6492ZM484.492 34.0592H582.904C595.963 34.0592 606.15 36.5765 613.466 41.6112C620.782 46.6458 624.44 54.3158 624.44 64.6212C624.44 74.9265 620.782 82.5965 613.466 87.6312C606.15 92.5872 595.963 95.0652 582.904 95.0652H579.01L625.856 131.763H593.524L546.678 95.0652H506.558V131.763H484.492V34.0592ZM506.558 75.8312H584.438C590.417 75.8312 594.704 74.8478 597.3 72.8812C599.896 70.9145 601.194 68.1612 601.194 64.6212C601.194 61.0812 599.896 58.3278 597.3 56.3612C594.704 54.3945 590.417 53.4112 584.438 53.4112H506.558V75.8312ZM699.751 94.7112V75.7132H792.381V131.763H775.625L774.681 120.435C770.276 123.818 765.674 126.532 760.875 128.577C756.155 130.544 751.356 131.999 746.479 132.943C741.68 133.966 736.882 134.595 732.083 134.831C727.284 135.146 722.643 135.303 718.159 135.303C705.1 135.303 693.3 133.966 682.759 131.291C672.218 128.538 663.25 124.801 655.855 120.081C648.46 115.361 642.757 109.815 638.745 103.443C634.812 97.0712 632.845 90.2272 632.845 82.9112C632.845 75.5952 635.087 68.7512 639.571 62.3792C644.055 56.0072 650.27 50.4612 658.215 45.7412C666.239 41.0212 675.758 37.3238 686.771 34.6492C697.784 31.8958 709.82 30.5192 722.879 30.5192C737.59 30.5192 750.648 31.6992 762.055 34.0592C773.462 36.4192 782.744 39.4872 789.903 43.2632V67.4532C786.678 64.6998 782.626 62.2218 777.749 60.0192C772.872 57.8165 767.483 55.9285 761.583 54.3552C755.683 52.7818 749.429 51.5625 742.821 50.6972C736.292 49.8318 729.684 49.3992 722.997 49.3992C713.557 49.3992 704.786 50.2645 696.683 51.9952C688.659 53.7258 681.697 56.1252 675.797 59.1932C669.976 62.1825 665.374 65.7225 661.991 69.8132C658.687 73.9038 657.035 78.2698 657.035 82.9112C657.035 87.5525 658.451 91.9185 661.283 96.0092C664.115 100.1 668.166 103.679 673.437 106.747C678.786 109.737 685.237 112.097 692.789 113.827C700.341 115.558 708.837 116.423 718.277 116.423C723.39 116.423 728.582 116.069 733.853 115.361C739.124 114.575 744.158 113.355 748.957 111.703C753.834 110.051 758.318 107.927 762.409 105.331C766.5 102.657 769.882 99.4312 772.557 95.6552V94.7112H699.751ZM802.424 34.0592H928.802V53.5292H824.49V73.8252H919.834V91.9972H824.49V112.529H928.802V131.763H802.424V34.0592ZM942.088 34.0592H1037.31C1043.84 34.0592 1049.7 34.6885 1054.9 35.9472C1060.09 37.2058 1064.49 39.1332 1068.11 41.7292C1071.73 44.2465 1074.48 47.4325 1076.37 51.2872C1078.34 55.0632 1079.32 59.5472 1079.32 64.7392C1079.32 69.9312 1078.34 74.4545 1076.37 78.3092C1074.48 82.0852 1071.69 85.2712 1067.99 87.8672C1064.38 90.3845 1059.97 92.2725 1054.78 93.5312C1049.59 94.7898 1043.69 95.4192 1037.08 95.4192H964.154V131.763H942.088V34.0592ZM964.154 75.9492H1038.85C1044.83 75.9492 1049.19 74.9658 1051.95 72.9992C1054.7 71.0325 1056.08 68.2792 1056.08 64.7392C1056.08 61.1992 1054.7 58.4458 1051.95 56.4792C1049.19 54.5125 1044.83 53.5292 1038.85 53.5292H964.154V75.9492ZM1126.58 34.0592H1147L1224.76 131.763H1196.67L1181.81 113.119H1091.42L1076.55 131.763H1048.82L1126.58 34.0592ZM1106.99 93.6492H1166.23L1136.61 55.7712L1106.99 93.6492ZM1230.85 34.0592H1253.51V112.293H1350.62V131.763H1230.85V34.0592Z"
            fill="white"
          />
</svg>