<svg width="209" height="209" viewBox="0 0 209 209" fill="none" xmlns="http://www.w3.org/2000/svg">
<path d="M209 104.258C209 161.651 162.214 208.176 104.5 208.176C46.7863 208.176 2.82043e-05 161.651 1.81695e-05 104.258C8.13478e-06 46.8663 46.7862 0.340812 104.5 0.340802C162.214 0.340792 209 46.8663 209 104.258Z" fill="#121212"/>
<path d="M178.763 108.212C178.594 110.634 180.279 112.139 182.741 112.391L178.587 112.61L178.505 113.78L184.177 114.172L184.525 109.198L182.972 109.091L182.752 112.228C181.26 111.733 180.319 110.851 180.448 109.014C180.598 106.869 182.241 105.921 184.562 106.081C186.834 106.239 188.363 107.39 188.204 109.665C188.081 111.421 186.93 112.386 185.501 112.614L186.534 114.286C188.564 113.675 189.794 112.062 189.954 109.77C190.191 106.389 187.919 104.354 184.698 104.131C181.217 103.89 178.958 105.416 178.763 108.212Z" fill="white"/>
<path d="M175.977 125.451L177.566 125.848L179.005 120.142L182.056 120.903L180.865 125.629L182.454 126.025L183.645 121.299L186.474 122.005L185.036 127.71L186.625 128.106L188.514 120.615L177.866 117.96L175.977 125.451Z" fill="white"/>
<path d="M173.056 133.306L181.658 136.924L180.343 140.015L181.852 140.65L185.197 132.786L183.688 132.152L182.379 135.228L173.778 131.61L173.056 133.306Z" fill="white"/>
<path d="M165.378 146.98L174.325 153.305L175.398 151.804L166.45 145.48L165.378 146.98Z" fill="white"/>
<path d="M161.541 152.023L165.999 156.085L167.561 157.332L165.738 157.019L157.877 156L156.726 157.249L164.819 164.624L166.07 163.267L161.625 159.216L160.013 157.902L162.012 158.265L169.723 159.303L170.886 158.042L162.792 150.666L161.541 152.023Z" fill="white"/>
<path d="M144.525 166.767L149.567 174.584L146.726 176.397L147.611 177.768L154.837 173.158L153.953 171.787L151.125 173.59L146.083 165.773L144.525 166.767Z" fill="white"/>
<path d="M134.245 172.058C131.296 173.324 130.261 176.448 131.522 179.35C132.775 182.237 135.772 183.631 138.72 182.365C141.683 181.092 142.703 177.974 141.45 175.087C140.19 172.185 137.208 170.786 134.245 172.058ZM134.931 173.68C137.037 172.776 138.757 173.777 139.66 175.856C140.556 177.92 140.116 179.866 138.01 180.771C135.904 181.675 134.193 180.652 133.297 178.588C132.394 176.509 132.825 174.584 134.931 173.68Z" fill="white"/>
<path d="M122.026 176.129C119.106 176.81 118.099 178.602 118.858 181.822L120.295 187.914L122.082 187.497L120.641 181.39C120.143 179.28 120.627 178.263 122.414 177.846C124.169 177.437 125.088 178.126 125.586 180.236L127.027 186.343L128.814 185.926L127.377 179.835C126.617 176.615 124.881 175.463 122.026 176.129Z" fill="white"/>
<path d="M109.141 178.082C106.721 178.23 105.13 179.585 104.493 181.746L106.169 182.819C106.411 181.171 107.352 179.938 109.233 179.823C111.49 179.684 112.653 181.229 112.792 183.473C112.933 185.733 111.969 187.392 109.712 187.531C107.831 187.647 106.746 186.554 106.3 184.933L104.77 186.202C105.671 188.286 107.416 189.419 109.837 189.27C113.205 189.063 114.95 186.491 114.755 183.352C114.56 180.213 112.51 177.874 109.141 178.082Z" fill="white"/>
<path d="M98.8657 178.207L98.3137 182.933L93.073 182.328L93.625 177.602L91.7858 177.39L90.5193 188.234L92.3584 188.446L92.8839 183.947L98.1247 184.552L97.5992 189.051L99.4383 189.264L100.705 178.42L98.8657 178.207Z" fill="white"/>
<path d="M76.1328 176.871L75.6378 178.183L79.4883 179.619L79.9833 178.307L76.1328 176.871Z" fill="white"/>
<path d="M64.2865 166.493C62.2561 165.145 60.1061 165.853 58.6642 167.854L60.5344 164.158L59.5532 163.507L56.3963 168.209L60.5662 170.978L61.4305 169.69L58.8005 167.944C59.9736 166.901 61.2099 166.527 62.7498 167.549C64.5486 168.743 64.561 170.632 63.2691 172.556C62.0045 174.44 60.2408 175.189 58.333 173.923C56.8613 172.945 56.5896 171.472 57.0994 170.126L55.1271 170.188C54.6532 172.244 55.4518 174.106 57.3732 175.382C60.2076 177.263 63.1121 176.312 64.9044 173.642C66.8422 170.756 66.6304 168.049 64.2865 166.493Z" fill="white"/>
<path d="M50.7593 155.668L49.6305 156.849L53.918 160.901L51.7508 163.169L48.1997 159.812L47.0709 160.993L50.6221 164.35L48.6129 166.452L44.3254 162.4L43.1966 163.581L48.8262 168.901L56.3889 160.988L50.7593 155.668Z" fill="white"/>
<path d="M45.2642 149.18L37.8544 154.834L35.7998 152.171L34.4998 153.163L39.726 159.937L41.026 158.945L38.9814 156.295L46.3912 150.641L45.2642 149.18Z" fill="white"/>
<path d="M37.111 135.859L27.1666 140.483L27.9509 142.151L37.8953 137.526L37.111 135.859Z" fill="white"/>
<path d="M34.574 130.047L28.8162 131.881L26.9526 132.612L28.13 131.193L32.9193 124.91L32.3994 123.297L21.9449 126.627L22.5098 128.381L28.252 126.551L30.1987 125.811L28.8902 127.358L24.1595 133.501L24.6844 135.131L35.1389 131.8L34.574 130.047Z" fill="white"/>
<path d="M30.133 108.217L20.8072 108.719L20.6249 105.367L18.9888 105.455L19.4524 113.98L21.0885 113.892L20.9071 110.557L30.2329 110.056L30.133 108.217Z" fill="white"/>
<path d="M30.5976 96.3682C30.9559 93.1946 28.7421 90.7504 25.5833 90.3978C22.4407 90.047 19.7371 91.9423 19.3788 95.1159C19.0188 98.3057 21.2344 100.734 24.3769 101.084C27.5358 101.437 30.2375 99.558 30.5976 96.3682ZM28.8409 96.1557C28.585 98.4226 26.8577 99.4103 24.5944 99.1576C22.3474 98.9068 20.867 97.561 21.1229 95.2942C21.3788 93.0273 23.1206 92.0576 25.3676 92.3084C27.6309 92.5611 29.0968 93.8888 28.8409 96.1557Z" fill="white"/>
<path d="M33.0242 83.9952C33.874 81.1357 32.8075 79.378 29.6177 78.4406L23.5839 76.6672L23.0638 78.4173L29.1133 80.1952C31.2031 80.8094 31.852 81.7307 31.3318 83.4808C30.821 85.1996 29.7635 85.6534 27.6737 85.0391L21.6241 83.2612L21.104 85.0112L27.1378 86.7846C30.3276 87.7221 32.1929 86.7921 33.0242 83.9952Z" fill="white"/>
<path d="M37.6842 71.8376C38.7601 69.6765 38.3709 67.6304 36.8036 66.0043L35.034 66.9148C36.3497 67.9444 36.9562 69.3702 36.1202 71.0495C35.117 73.0646 33.1908 73.2981 31.1644 72.3004C29.1233 71.2956 28.1568 69.638 29.16 67.6229C29.996 65.9437 31.4893 65.5516 33.125 65.9751L32.7802 64.0236C30.5149 63.7629 28.6574 64.7029 27.5815 66.864C26.084 69.8721 27.458 72.6575 30.2921 74.0527C33.1261 75.4479 36.1866 74.8456 37.6842 71.8376Z" fill="white"/>
<path d="M42.5689 63.0141L38.7205 60.1874L41.8551 55.9672L45.7035 58.794L46.8036 57.313L37.9734 50.8269L36.8733 52.3079L40.5372 54.9992L37.4025 59.2193L33.7387 56.5281L32.6386 58.009L41.4688 64.4951L42.5689 63.0141Z" fill="white"/>
<path d="M54.7619 44.1809L53.8561 43.1074L50.7057 45.7363L51.6115 46.8097L54.7619 44.1809Z" fill="white"/>
<path d="M69.8104 38.8682C71.9902 37.7749 72.4295 35.5655 71.3885 33.3321L73.7014 36.7707L74.7547 36.2425L72.1945 31.1943L67.7178 33.4394L68.4187 34.8215L71.2422 33.4054C71.5773 34.9345 71.2959 36.1888 69.6427 37.0179C67.7116 37.9864 66.0524 37.0667 65.0046 35.0008C63.9791 32.9786 64.1923 31.0833 66.2405 30.0561C67.8205 29.2637 69.2437 29.7543 70.1709 30.8587L71.0881 29.1213C69.5224 27.6985 67.4992 27.4723 65.4364 28.5068C62.3934 30.0329 61.7956 33.0153 63.2491 35.8813C64.8206 38.9801 67.2941 40.1301 69.8104 38.8682Z" fill="white"/>
<path d="M85.5844 32.5784L85.1082 31.0193L79.4486 32.7291L78.5341 29.7358L83.2217 28.3197L82.7454 26.7607L78.0579 28.1768L77.2101 25.4018L82.8697 23.692L82.3934 22.133L74.9623 24.3779L78.1533 34.8233L85.5844 32.5784Z" fill="white"/>
<path d="M93.9688 30.9627L92.6778 21.7644L96.0207 21.3004L95.7942 19.6867L87.2909 20.8669L87.5174 22.4807L90.844 22.0189L92.135 31.2172L93.9688 30.9627Z" fill="white"/>
<path d="M109.993 30.4228L110.881 19.5418L109.036 19.3928L108.147 30.2738L109.993 30.4228Z" fill="white"/>
<path d="M116.538 31.1053L117.784 25.222L118.068 23.25L118.725 24.9695L121.845 32.2167L123.512 32.566L125.775 21.8835L123.963 21.5041L122.72 27.3715L122.404 29.4198L121.7 27.5241L118.672 20.396L116.988 20.0435L114.726 30.7259L116.538 31.1053Z" fill="white"/>
<path d="M138.068 38.1525L142.273 29.86L145.287 31.3715L146.025 29.9167L138.359 26.072L137.621 27.5268L140.62 29.031L136.414 37.3234L138.068 38.1525Z" fill="white"/>
<path d="M147.7 44.1243C150.297 46.0029 153.528 45.2976 155.397 42.7414C157.258 40.1984 156.937 36.9244 154.34 35.0458C151.73 33.1576 148.512 33.8724 146.652 36.4155C144.782 38.9717 145.089 42.2361 147.7 44.1243ZM148.754 42.7108C146.899 41.369 146.889 39.3876 148.229 37.5561C149.559 35.7377 151.467 35.1234 153.322 36.4652C155.177 37.8071 155.164 39.7921 153.834 41.6104C152.494 43.4419 150.609 44.0527 148.754 42.7108Z" fill="white"/>
<path d="M157.415 52.3889C159.496 54.5352 161.56 54.4803 163.954 52.1844L168.483 47.8413L167.209 46.5277L162.668 50.8821C161.1 52.3863 159.974 52.4927 158.7 51.1791C157.449 49.889 157.574 48.7504 159.143 47.2462L163.683 42.8917L162.41 41.5781L157.88 45.9212C155.486 48.2172 155.379 50.2894 157.415 52.3889Z" fill="white"/>
<path d="M165.908 62.5866C167.269 64.5824 169.251 65.2535 171.446 64.6983L171.521 62.7183C169.972 63.3498 168.425 63.1722 167.368 61.6215C166.098 59.7606 166.843 57.9787 168.714 56.7165C170.599 55.4452 172.526 55.4254 173.795 57.2863C174.853 58.837 174.46 60.3224 173.284 61.5294L175.162 62.1923C176.506 60.3604 176.598 58.2899 175.237 56.2942C173.342 53.5164 170.228 53.3332 167.611 55.0984C164.994 56.8636 164.013 59.8088 165.908 62.5866Z" fill="white"/>
<path d="M171.067 70.8414L175.431 68.8904L177.594 73.6756L173.231 75.6265L173.99 77.3058L184.002 72.8292L183.243 71.15L179.089 73.0074L176.925 68.2222L181.08 66.3648L180.32 64.6855L170.308 69.1621L171.067 70.8414Z" fill="white"/>
<path d="M181.656 90.9999L183.042 90.7479L182.303 86.7249L180.916 86.9769L181.656 90.9999Z" fill="white"/>
</svg>
