        <svg
          width="957"
          height="19"
          viewBox="0 0 957 19"
          fill="transparent"
          xmlns="http://www.w3.org/2000/svg"
        >
          <path
            d="M7.16 18.24C5.656 18.24 4.4 18 3.392 17.52C2.4 17.024 1.656 16.352 1.16 15.504C0.664 14.64 0.416 13.656 0.416 12.552H2.6C2.664 13.928 3.096 14.928 3.896 15.552C4.712 16.176 5.816 16.488 7.208 16.488C8.664 16.488 9.744 16.2 10.448 15.624C11.152 15.032 11.504 14.24 11.504 13.248C11.504 12.432 11.272 11.816 10.808 11.4C10.36 10.968 9.768 10.648 9.032 10.44C8.296 10.216 7.488 10.016 6.608 9.84C5.584 9.632 4.64 9.36 3.776 9.024C2.928 8.688 2.24 8.216 1.712 7.608C1.2 6.984 0.944 6.144 0.944 5.088C0.944 4.08 1.2 3.216 1.712 2.496C2.24 1.776 2.968 1.224 3.896 0.839999C4.824 0.455999 5.912 0.263999 7.16 0.263999C9.192 0.263999 10.744 0.736 11.816 1.68C12.888 2.608 13.44 3.856 13.472 5.424H11.264C11.216 4.352 10.856 3.512 10.184 2.904C9.512 2.296 8.488 1.992 7.112 1.992C5.928 1.992 4.984 2.256 4.28 2.784C3.592 3.296 3.248 4 3.248 4.896C3.248 5.632 3.456 6.192 3.872 6.576C4.288 6.96 4.84 7.248 5.528 7.44C6.232 7.632 7.008 7.816 7.856 7.992C8.624 8.136 9.36 8.32 10.064 8.544C10.784 8.768 11.424 9.064 11.984 9.432C12.544 9.8 12.984 10.28 13.304 10.872C13.64 11.464 13.808 12.208 13.808 13.104C13.808 14.256 13.528 15.216 12.968 15.984C12.424 16.736 11.648 17.304 10.64 17.688C9.648 18.056 8.488 18.24 7.16 18.24ZM22.3222 18V0.503999H24.3622V7.92H24.5302C24.8022 7.072 25.3062 6.4 26.0422 5.904C26.7942 5.408 27.6582 5.16 28.6342 5.16C30.0262 5.16 31.0982 5.592 31.8502 6.456C32.6182 7.304 33.0022 8.544 33.0022 10.176V18H30.9622V10.44C30.9622 9.112 30.6822 8.184 30.1222 7.656C29.5622 7.128 28.8102 6.864 27.8662 6.864C26.7782 6.864 25.9142 7.232 25.2742 7.968C24.6502 8.704 24.3382 9.688 24.3382 10.92V18H22.3222ZM46.0325 18.24C44.3845 18.24 43.1445 17.68 42.3125 16.56C41.4965 15.44 41.0885 13.888 41.0885 11.904V11.64C41.0885 9.496 41.5205 7.888 42.3845 6.816C43.2645 5.744 44.4805 5.208 46.0325 5.208C46.9605 5.208 47.7765 5.432 48.4805 5.88C49.2005 6.328 49.7045 6.936 49.9925 7.704H50.1605L50.2565 5.424H52.1765V18H50.1605V15.768H49.9925C49.6885 16.504 49.1765 17.104 48.4565 17.568C47.7525 18.016 46.9445 18.24 46.0325 18.24ZM46.7285 16.56C47.7845 16.56 48.6165 16.216 49.2245 15.528C49.8325 14.84 50.1365 13.928 50.1365 12.792V10.656C50.1365 9.504 49.8325 8.584 49.2245 7.896C48.6165 7.208 47.7845 6.864 46.7285 6.864C45.6565 6.864 44.8085 7.184 44.1845 7.824C43.5605 8.448 43.2485 9.344 43.2485 10.512V12.96C43.2485 14.096 43.5605 14.984 44.1845 15.624C44.8085 16.248 45.6565 16.56 46.7285 16.56ZM61.5238 18V7.368C61.5238 6.76 61.6998 6.288 62.0518 5.952C62.4198 5.6 62.8998 5.424 63.4918 5.424H68.6278V7.104H63.5398V18H61.5238ZM80.9652 18.24C79.6692 18.24 78.5892 17.968 77.7252 17.424C76.8612 16.88 76.2132 16.12 75.7812 15.144C75.3652 14.152 75.1572 13.008 75.1572 11.712V11.568C75.1572 10.192 75.3972 9.032 75.8772 8.088C76.3572 7.128 77.0292 6.408 77.8932 5.928C78.7572 5.432 79.7492 5.184 80.8692 5.184C82.6452 5.184 84.0132 5.712 84.9732 6.768C85.9332 7.824 86.4132 9.216 86.4132 10.944V12.24H77.2452V13.128C77.2452 14.2 77.5812 15.056 78.2532 15.696C78.9412 16.336 79.8292 16.656 80.9172 16.656C81.8772 16.656 82.6772 16.416 83.3172 15.936C83.9572 15.44 84.3172 14.792 84.3972 13.992H86.3412C86.2772 14.84 86.0052 15.584 85.5252 16.224C85.0612 16.864 84.4292 17.36 83.6292 17.712C82.8452 18.064 81.9572 18.24 80.9652 18.24ZM77.2452 10.728V10.848H84.4212V10.728C84.4212 9.304 84.0932 8.288 83.4372 7.68C82.7972 7.056 81.9492 6.744 80.8932 6.744C79.6772 6.744 78.7652 7.104 78.1572 7.824C77.5492 8.544 77.2452 9.512 77.2452 10.728ZM109.19 18C108.47 18 107.958 17.824 107.654 17.472C107.35 17.104 107.198 16.64 107.198 16.08V7.104H104.198V5.424H107.198V1.296H109.214V5.424H112.766V7.104H109.214V16.344H112.622V18H109.19ZM120.825 18V0.503999H122.865V7.92H123.033C123.305 7.072 123.809 6.4 124.545 5.904C125.297 5.408 126.161 5.16 127.137 5.16C128.529 5.16 129.601 5.592 130.353 6.456C131.121 7.304 131.505 8.544 131.505 10.176V18H129.465V10.44C129.465 9.112 129.185 8.184 128.625 7.656C128.065 7.128 127.313 6.864 126.369 6.864C125.281 6.864 124.417 7.232 123.777 7.968C123.153 8.704 122.841 9.688 122.841 10.92V18H120.825ZM145.4 18.24C144.104 18.24 143.024 17.968 142.16 17.424C141.296 16.88 140.648 16.12 140.216 15.144C139.8 14.152 139.592 13.008 139.592 11.712V11.568C139.592 10.192 139.832 9.032 140.312 8.088C140.792 7.128 141.464 6.408 142.328 5.928C143.192 5.432 144.184 5.184 145.304 5.184C147.08 5.184 148.448 5.712 149.408 6.768C150.368 7.824 150.848 9.216 150.848 10.944V12.24H141.68V13.128C141.68 14.2 142.016 15.056 142.688 15.696C143.376 16.336 144.264 16.656 145.352 16.656C146.312 16.656 147.112 16.416 147.752 15.936C148.392 15.44 148.752 14.792 148.832 13.992H150.776C150.712 14.84 150.44 15.584 149.96 16.224C149.496 16.864 148.864 17.36 148.064 17.712C147.28 18.064 146.392 18.24 145.4 18.24ZM141.68 10.728V10.848H148.856V10.728C148.856 9.304 148.528 8.288 147.872 7.68C147.232 7.056 146.384 6.744 145.328 6.744C144.112 6.744 143.2 7.104 142.592 7.824C141.984 8.544 141.68 9.512 141.68 10.728ZM170.72 18V0.503999H182.696V2.376H172.832V8.616H181.736V10.392H172.832V18H170.72ZM190.697 18V5.424H192.713V18H190.697ZM190.697 3.312V0.503999H192.713V3.312H190.697ZM202.083 18V7.368C202.083 6.76 202.259 6.288 202.611 5.952C202.979 5.6 203.459 5.424 204.051 5.424H209.187V7.104H204.099V18H202.083ZM220.897 18.24C219.233 18.24 217.969 17.856 217.105 17.088C216.257 16.32 215.833 15.312 215.833 14.064L217.777 14.088C217.809 15.016 218.113 15.688 218.689 16.104C219.265 16.504 220.025 16.704 220.969 16.704C221.945 16.704 222.665 16.512 223.129 16.128C223.593 15.744 223.825 15.264 223.825 14.688C223.825 14.096 223.697 13.648 223.441 13.344C223.185 13.04 222.809 12.816 222.313 12.672C221.817 12.512 221.209 12.376 220.489 12.264C220.009 12.184 219.513 12.08 219.001 11.952C218.505 11.824 218.049 11.64 217.633 11.4C217.217 11.16 216.881 10.832 216.625 10.416C216.369 10 216.241 9.472 216.241 8.832C216.241 7.664 216.681 6.768 217.561 6.144C218.441 5.504 219.553 5.184 220.897 5.184C222.321 5.184 223.457 5.528 224.305 6.216C225.153 6.904 225.593 7.84 225.625 9.024H223.705C223.689 8.24 223.425 7.656 222.913 7.272C222.401 6.888 221.721 6.696 220.873 6.696C219.993 6.696 219.329 6.88 218.881 7.248C218.449 7.6 218.233 8.056 218.233 8.616C218.233 9.112 218.377 9.496 218.665 9.768C218.969 10.024 219.361 10.216 219.841 10.344C220.321 10.456 220.841 10.56 221.401 10.656C221.897 10.736 222.409 10.84 222.937 10.968C223.465 11.096 223.953 11.288 224.401 11.544C224.849 11.8 225.209 12.16 225.481 12.624C225.753 13.088 225.889 13.696 225.889 14.448C225.889 15.68 225.425 16.624 224.497 17.28C223.585 17.92 222.385 18.24 220.897 18.24ZM237.309 18C236.589 18 236.077 17.824 235.773 17.472C235.469 17.104 235.317 16.64 235.317 16.08V7.104H232.317V5.424H235.317V1.296H237.333V5.424H240.885V7.104H237.333V16.344H240.741V18H237.309ZM260.528 18V0.503999H267.056C269.584 0.503999 271.568 1.224 273.008 2.664C274.448 4.088 275.168 6.248 275.168 9.144V9.336C275.168 11.352 274.832 13 274.16 14.28C273.488 15.544 272.544 16.48 271.328 17.088C270.112 17.696 268.688 18 267.056 18H260.528ZM262.64 16.128H267.032C268.872 16.128 270.304 15.648 271.328 14.688C272.368 13.712 272.888 12.304 272.888 10.464V8.04C272.888 6.328 272.4 4.96 271.424 3.936C270.464 2.896 269 2.376 267.032 2.376H262.64V16.128ZM288.232 18.24C286.936 18.24 285.856 17.968 284.992 17.424C284.128 16.88 283.48 16.12 283.048 15.144C282.632 14.152 282.424 13.008 282.424 11.712V11.568C282.424 10.192 282.664 9.032 283.144 8.088C283.624 7.128 284.296 6.408 285.16 5.928C286.024 5.432 287.016 5.184 288.136 5.184C289.912 5.184 291.28 5.712 292.24 6.768C293.2 7.824 293.68 9.216 293.68 10.944V12.24H284.512V13.128C284.512 14.2 284.848 15.056 285.52 15.696C286.208 16.336 287.096 16.656 288.184 16.656C289.144 16.656 289.944 16.416 290.584 15.936C291.224 15.44 291.584 14.792 291.664 13.992H293.608C293.544 14.84 293.272 15.584 292.792 16.224C292.328 16.864 291.696 17.36 290.896 17.712C290.112 18.064 289.224 18.24 288.232 18.24ZM284.512 10.728V10.848H291.688V10.728C291.688 9.304 291.36 8.288 290.704 7.68C290.064 7.056 289.216 6.744 288.16 6.744C286.944 6.744 286.032 7.104 285.424 7.824C284.816 8.544 284.512 9.512 284.512 10.728ZM306.601 18.24C304.665 18.24 303.225 17.664 302.281 16.512C301.337 15.36 300.865 13.784 300.865 11.784V11.688C300.865 9.48 301.393 7.848 302.449 6.792C303.505 5.72 304.889 5.184 306.601 5.184C308.169 5.184 309.441 5.592 310.417 6.408C311.393 7.224 311.929 8.344 312.025 9.768H310.033C309.937 8.824 309.577 8.104 308.953 7.608C308.329 7.112 307.545 6.864 306.601 6.864C305.481 6.864 304.593 7.2 303.937 7.872C303.281 8.528 302.953 9.4 302.953 10.488V12.936C302.953 14.072 303.273 14.96 303.913 15.6C304.569 16.24 305.465 16.56 306.601 16.56C307.641 16.56 308.457 16.296 309.049 15.768C309.657 15.224 309.993 14.52 310.057 13.656H312.049C312.017 14.568 311.761 15.368 311.281 16.056C310.817 16.744 310.177 17.28 309.361 17.664C308.561 18.048 307.641 18.24 306.601 18.24ZM324.903 18.24C323.607 18.24 322.527 17.968 321.663 17.424C320.799 16.88 320.151 16.12 319.719 15.144C319.303 14.152 319.095 13.008 319.095 11.712V11.568C319.095 10.192 319.335 9.032 319.815 8.088C320.295 7.128 320.967 6.408 321.831 5.928C322.695 5.432 323.687 5.184 324.807 5.184C326.583 5.184 327.951 5.712 328.911 6.768C329.871 7.824 330.351 9.216 330.351 10.944V12.24H321.183V13.128C321.183 14.2 321.519 15.056 322.191 15.696C322.879 16.336 323.767 16.656 324.855 16.656C325.815 16.656 326.615 16.416 327.255 15.936C327.895 15.44 328.255 14.792 328.335 13.992H330.279C330.215 14.84 329.943 15.584 329.463 16.224C328.999 16.864 328.367 17.36 327.567 17.712C326.783 18.064 325.895 18.24 324.903 18.24ZM321.183 10.728V10.848H328.359V10.728C328.359 9.304 328.031 8.288 327.375 7.68C326.735 7.056 325.887 6.744 324.831 6.744C323.615 6.744 322.703 7.104 322.095 7.824C321.487 8.544 321.183 9.512 321.183 10.728ZM338.639 18V5.424H340.511L340.679 7.944H340.847C341.119 7.096 341.623 6.424 342.359 5.928C343.111 5.432 343.975 5.184 344.951 5.184C346.343 5.184 347.415 5.608 348.167 6.456C348.935 7.304 349.319 8.552 349.319 10.2V18H347.279V10.44C347.279 9.112 346.999 8.184 346.439 7.656C345.879 7.128 345.127 6.864 344.183 6.864C343.095 6.864 342.231 7.24 341.591 7.992C340.967 8.728 340.655 9.712 340.655 10.944V18H338.639ZM361.659 18C360.939 18 360.427 17.824 360.123 17.472C359.819 17.104 359.667 16.64 359.667 16.08V7.104H356.667V5.424H359.667V1.296H361.683V5.424H365.235V7.104H361.683V16.344H365.091V18H361.659ZM373.294 18V7.368C373.294 6.76 373.47 6.288 373.822 5.952C374.19 5.6 374.67 5.424 375.262 5.424H380.398V7.104H375.31V18H373.294ZM391.872 18.24C390.224 18.24 388.984 17.68 388.152 16.56C387.336 15.44 386.928 13.888 386.928 11.904V11.64C386.928 9.496 387.36 7.888 388.224 6.816C389.104 5.744 390.32 5.208 391.872 5.208C392.8 5.208 393.616 5.432 394.32 5.88C395.04 6.328 395.544 6.936 395.832 7.704H396L396.096 5.424H398.016V18H396V15.768H395.832C395.528 16.504 395.016 17.104 394.296 17.568C393.592 18.016 392.784 18.24 391.872 18.24ZM392.568 16.56C393.624 16.56 394.456 16.216 395.064 15.528C395.672 14.84 395.976 13.928 395.976 12.792V10.656C395.976 9.504 395.672 8.584 395.064 7.896C394.456 7.208 393.624 6.864 392.568 6.864C391.496 6.864 390.648 7.184 390.024 7.824C389.4 8.448 389.088 9.344 389.088 10.512V12.96C389.088 14.096 389.4 14.984 390.024 15.624C390.648 16.248 391.496 16.56 392.568 16.56ZM407.363 18V0.503999H409.379V18H407.363ZM418.749 18V5.424H420.765V18H418.749ZM418.749 3.312V0.503999H420.765V3.312H418.749ZM429.151 18V16.464L436.543 7.08H429.439V5.424H439.135V6.96L431.767 16.344H439.375V18H429.151ZM452.201 18.24C450.905 18.24 449.825 17.968 448.961 17.424C448.097 16.88 447.449 16.12 447.017 15.144C446.601 14.152 446.393 13.008 446.393 11.712V11.568C446.393 10.192 446.633 9.032 447.113 8.088C447.593 7.128 448.265 6.408 449.129 5.928C449.993 5.432 450.985 5.184 452.105 5.184C453.881 5.184 455.249 5.712 456.209 6.768C457.169 7.824 457.649 9.216 457.649 10.944V12.24H448.481V13.128C448.481 14.2 448.817 15.056 449.489 15.696C450.177 16.336 451.065 16.656 452.153 16.656C453.113 16.656 453.913 16.416 454.553 15.936C455.193 15.44 455.553 14.792 455.633 13.992H457.577C457.513 14.84 457.241 15.584 456.761 16.224C456.297 16.864 455.665 17.36 454.865 17.712C454.081 18.064 453.193 18.24 452.201 18.24ZM448.481 10.728V10.848H455.657V10.728C455.657 9.304 455.329 8.288 454.673 7.68C454.033 7.056 453.185 6.744 452.129 6.744C450.913 6.744 450.001 7.104 449.393 7.824C448.785 8.544 448.481 9.512 448.481 10.728ZM469.778 18.216C468.13 18.216 466.89 17.656 466.058 16.536C465.242 15.4 464.834 13.816 464.834 11.784V11.52C464.834 9.408 465.266 7.824 466.13 6.768C467.01 5.712 468.226 5.184 469.778 5.184C470.69 5.184 471.498 5.416 472.202 5.88C472.922 6.328 473.434 6.928 473.738 7.68H473.906V0.503999H475.922V18H474.002L473.906 15.72H473.738C473.45 16.488 472.946 17.096 472.226 17.544C471.522 17.992 470.706 18.216 469.778 18.216ZM470.474 16.56C471.53 16.56 472.362 16.216 472.97 15.528C473.578 14.84 473.882 13.92 473.882 12.768V10.632C473.882 9.496 473.578 8.584 472.97 7.896C472.362 7.208 471.53 6.864 470.474 6.864C469.402 6.864 468.554 7.184 467.93 7.824C467.306 8.448 466.994 9.336 466.994 10.488V12.912C466.994 14.08 467.306 14.984 467.93 15.624C468.554 16.248 469.402 16.56 470.474 16.56ZM496.877 18V0.503999H504.317C506.269 0.503999 507.741 0.999999 508.733 1.992C509.741 2.968 510.245 4.352 510.245 6.144C510.245 7.84 509.749 9.208 508.757 10.248C507.765 11.272 506.253 11.784 504.221 11.784H498.989V18H496.877ZM504.005 2.376H498.989V10.008H504.005C505.237 10.008 506.205 9.736 506.909 9.192C507.613 8.632 507.965 7.832 507.965 6.792V5.592C507.965 4.552 507.613 3.76 506.909 3.216C506.205 2.656 505.237 2.376 504.005 2.376ZM523.033 18.24C521.097 18.24 519.657 17.672 518.713 16.536C517.769 15.384 517.289 13.8 517.273 11.784V11.688C517.273 9.48 517.801 7.848 518.857 6.792C519.913 5.72 521.305 5.184 523.033 5.184C524.745 5.184 526.129 5.72 527.185 6.792C528.241 7.848 528.769 9.48 528.769 11.688V11.784C528.769 13.8 528.297 15.384 527.353 16.536C526.409 17.672 524.969 18.24 523.033 18.24ZM523.033 16.56C524.169 16.56 525.057 16.24 525.697 15.6C526.353 14.96 526.681 14.072 526.681 12.936V10.488C526.681 9.4 526.353 8.528 525.697 7.872C525.041 7.2 524.153 6.864 523.033 6.864C521.913 6.864 521.017 7.2 520.345 7.872C519.689 8.528 519.361 9.4 519.361 10.488V12.936C519.361 14.072 519.689 14.96 520.345 15.6C521.001 16.24 521.897 16.56 523.033 16.56ZM538.928 18L535.424 5.424H537.344L539.96 15.24L540.128 16.056H540.272L540.44 15.24L543.032 5.424H545.192L547.784 15.24L547.952 16.056H548.096L548.264 15.24L550.88 5.424H552.824L549.296 18H546.824L544.376 8.832L544.136 7.824H544.04L543.824 8.832L541.352 18H538.928ZM565.236 18.24C563.94 18.24 562.86 17.968 561.996 17.424C561.132 16.88 560.484 16.12 560.052 15.144C559.636 14.152 559.428 13.008 559.428 11.712V11.568C559.428 10.192 559.668 9.032 560.148 8.088C560.628 7.128 561.3 6.408 562.164 5.928C563.028 5.432 564.02 5.184 565.14 5.184C566.916 5.184 568.284 5.712 569.244 6.768C570.204 7.824 570.684 9.216 570.684 10.944V12.24H561.516V13.128C561.516 14.2 561.852 15.056 562.524 15.696C563.212 16.336 564.1 16.656 565.188 16.656C566.148 16.656 566.948 16.416 567.588 15.936C568.228 15.44 568.588 14.792 568.668 13.992H570.612C570.548 14.84 570.276 15.584 569.796 16.224C569.332 16.864 568.7 17.36 567.9 17.712C567.116 18.064 566.228 18.24 565.236 18.24ZM561.516 10.728V10.848H568.692V10.728C568.692 9.304 568.364 8.288 567.708 7.68C567.068 7.056 566.22 6.744 565.164 6.744C563.948 6.744 563.036 7.104 562.428 7.824C561.82 8.544 561.516 9.512 561.516 10.728ZM578.972 18V7.368C578.972 6.76 579.148 6.288 579.5 5.952C579.868 5.6 580.348 5.424 580.94 5.424H586.076V7.104H580.988V18H578.972ZM605.763 18V0.503999H613.851C615.483 0.503999 616.723 0.887999 617.571 1.656C618.435 2.408 618.867 3.488 618.867 4.896C618.867 5.904 618.611 6.76 618.099 7.464C617.603 8.168 616.859 8.648 615.867 8.904V9.072C616.907 9.232 617.731 9.672 618.339 10.392C618.963 11.096 619.275 12.032 619.275 13.2C619.275 14.816 618.763 16.024 617.739 16.824C616.715 17.608 615.339 18 613.611 18H605.763ZM613.323 2.136H607.827V8.256H613.347C614.387 8.256 615.195 8.016 615.771 7.536C616.347 7.04 616.635 6.4 616.635 5.616V4.704C616.635 3.84 616.331 3.2 615.723 2.784C615.115 2.352 614.315 2.136 613.323 2.136ZM613.467 9.864H607.827V16.368H613.443C614.547 16.368 615.419 16.112 616.059 15.6C616.699 15.088 617.019 14.368 617.019 13.44V12.6C617.019 11.72 616.699 11.048 616.059 10.584C615.419 10.104 614.555 9.864 613.467 9.864ZM631.618 18.24C629.97 18.24 628.73 17.68 627.898 16.56C627.082 15.44 626.674 13.888 626.674 11.904V11.64C626.674 9.496 627.106 7.888 627.97 6.816C628.85 5.744 630.066 5.208 631.618 5.208C632.546 5.208 633.362 5.432 634.066 5.88C634.786 6.328 635.29 6.936 635.578 7.704H635.746L635.842 5.424H637.762V18H635.746V15.768H635.578C635.274 16.504 634.762 17.104 634.042 17.568C633.338 18.016 632.53 18.24 631.618 18.24ZM632.314 16.56C633.37 16.56 634.202 16.216 634.81 15.528C635.418 14.84 635.722 13.928 635.722 12.792V10.656C635.722 9.504 635.418 8.584 634.81 7.896C634.202 7.208 633.37 6.864 632.314 6.864C631.242 6.864 630.394 7.184 629.77 7.824C629.146 8.448 628.834 9.344 628.834 10.512V12.96C628.834 14.096 629.146 14.984 629.77 15.624C630.394 16.248 631.242 16.56 632.314 16.56ZM647.11 18V5.424H648.982L649.15 7.944H649.318C649.59 7.096 650.094 6.424 650.83 5.928C651.582 5.432 652.446 5.184 653.422 5.184C654.814 5.184 655.886 5.608 656.638 6.456C657.406 7.304 657.79 8.552 657.79 10.2V18H655.75V10.44C655.75 9.112 655.47 8.184 654.91 7.656C654.35 7.128 653.598 6.864 652.654 6.864C651.566 6.864 650.702 7.24 650.062 7.992C649.438 8.728 649.126 9.712 649.126 10.944V18H647.11ZM666.98 18V0.503999H668.996V11.928L675.596 5.4H678.068L673.052 10.296L678.164 18H675.812L671.636 11.64L668.996 14.136V18H666.98ZM703.413 18.24C701.909 18.24 700.653 18 699.645 17.52C698.653 17.024 697.909 16.352 697.413 15.504C696.917 14.64 696.669 13.656 696.669 12.552H698.853C698.917 13.928 699.349 14.928 700.149 15.552C700.965 16.176 702.069 16.488 703.461 16.488C704.917 16.488 705.997 16.2 706.701 15.624C707.405 15.032 707.757 14.24 707.757 13.248C707.757 12.432 707.525 11.816 707.061 11.4C706.613 10.968 706.021 10.648 705.285 10.44C704.549 10.216 703.741 10.016 702.861 9.84C701.837 9.632 700.893 9.36 700.029 9.024C699.181 8.688 698.493 8.216 697.965 7.608C697.453 6.984 697.197 6.144 697.197 5.088C697.197 4.08 697.453 3.216 697.965 2.496C698.493 1.776 699.221 1.224 700.149 0.839999C701.077 0.455999 702.165 0.263999 703.413 0.263999C705.445 0.263999 706.997 0.736 708.069 1.68C709.141 2.608 709.693 3.856 709.725 5.424H707.517C707.469 4.352 707.109 3.512 706.437 2.904C705.765 2.296 704.741 1.992 703.365 1.992C702.181 1.992 701.237 2.256 700.533 2.784C699.845 3.296 699.501 4 699.501 4.896C699.501 5.632 699.709 6.192 700.125 6.576C700.541 6.96 701.093 7.248 701.781 7.44C702.485 7.632 703.261 7.816 704.109 7.992C704.877 8.136 705.613 8.32 706.317 8.544C707.037 8.768 707.677 9.064 708.237 9.432C708.797 9.8 709.237 10.28 709.557 10.872C709.893 11.464 710.061 12.208 710.061 13.104C710.061 14.256 709.781 15.216 709.221 15.984C708.677 16.736 707.901 17.304 706.893 17.688C705.901 18.056 704.741 18.24 703.413 18.24ZM723.279 18.24C721.983 18.24 720.903 17.968 720.039 17.424C719.175 16.88 718.527 16.12 718.095 15.144C717.679 14.152 717.471 13.008 717.471 11.712V11.568C717.471 10.192 717.711 9.032 718.191 8.088C718.671 7.128 719.343 6.408 720.207 5.928C721.071 5.432 722.063 5.184 723.183 5.184C724.959 5.184 726.327 5.712 727.287 6.768C728.247 7.824 728.727 9.216 728.727 10.944V12.24H719.559V13.128C719.559 14.2 719.895 15.056 720.567 15.696C721.255 16.336 722.143 16.656 723.231 16.656C724.191 16.656 724.991 16.416 725.631 15.936C726.271 15.44 726.631 14.792 726.711 13.992H728.655C728.591 14.84 728.319 15.584 727.839 16.224C727.375 16.864 726.743 17.36 725.943 17.712C725.159 18.064 724.271 18.24 723.279 18.24ZM719.559 10.728V10.848H726.735V10.728C726.735 9.304 726.407 8.288 725.751 7.68C725.111 7.056 724.263 6.744 723.207 6.744C721.991 6.744 721.079 7.104 720.471 7.824C719.863 8.544 719.559 9.512 719.559 10.728ZM737.016 18V7.368C737.016 6.76 737.192 6.288 737.544 5.952C737.912 5.6 738.392 5.424 738.984 5.424H744.12V7.104H739.032V18H737.016ZM755.582 18L750.734 5.424H752.822L756.782 16.128H756.878L760.79 5.424H762.878L758.078 18H755.582ZM770.733 18V5.424H772.749V18H770.733ZM770.733 3.312V0.503999H772.749V3.312H770.733ZM786.751 18.24C784.815 18.24 783.375 17.664 782.431 16.512C781.487 15.36 781.015 13.784 781.015 11.784V11.688C781.015 9.48 781.543 7.848 782.599 6.792C783.655 5.72 785.039 5.184 786.751 5.184C788.319 5.184 789.591 5.592 790.567 6.408C791.543 7.224 792.079 8.344 792.175 9.768H790.183C790.087 8.824 789.727 8.104 789.103 7.608C788.479 7.112 787.695 6.864 786.751 6.864C785.631 6.864 784.743 7.2 784.087 7.872C783.431 8.528 783.103 9.4 783.103 10.488V12.936C783.103 14.072 783.423 14.96 784.063 15.6C784.719 16.24 785.615 16.56 786.751 16.56C787.791 16.56 788.607 16.296 789.199 15.768C789.807 15.224 790.143 14.52 790.207 13.656H792.199C792.167 14.568 791.911 15.368 791.431 16.056C790.967 16.744 790.327 17.28 789.511 17.664C788.711 18.048 787.791 18.24 786.751 18.24ZM805.053 18.24C803.757 18.24 802.677 17.968 801.813 17.424C800.949 16.88 800.301 16.12 799.869 15.144C799.453 14.152 799.245 13.008 799.245 11.712V11.568C799.245 10.192 799.485 9.032 799.965 8.088C800.445 7.128 801.117 6.408 801.981 5.928C802.845 5.432 803.837 5.184 804.957 5.184C806.733 5.184 808.101 5.712 809.061 6.768C810.021 7.824 810.501 9.216 810.501 10.944V12.24H801.333V13.128C801.333 14.2 801.669 15.056 802.341 15.696C803.029 16.336 803.917 16.656 805.005 16.656C805.965 16.656 806.765 16.416 807.405 15.936C808.045 15.44 808.405 14.792 808.485 13.992H810.429C810.365 14.84 810.093 15.584 809.613 16.224C809.149 16.864 808.517 17.36 807.717 17.712C806.933 18.064 806.045 18.24 805.053 18.24ZM801.333 10.728V10.848H808.509V10.728C808.509 9.304 808.181 8.288 807.525 7.68C806.885 7.056 806.037 6.744 804.981 6.744C803.765 6.744 802.853 7.104 802.245 7.824C801.637 8.544 801.333 9.512 801.333 10.728ZM830.374 18V0.503999H833.086L841.966 14.232L842.374 14.952H842.494V0.503999H844.558V18H841.918L832.894 4.176L832.558 3.552H832.438V18H830.374ZM859.062 18.24C857.766 18.24 856.686 17.968 855.822 17.424C854.958 16.88 854.31 16.12 853.878 15.144C853.462 14.152 853.254 13.008 853.254 11.712V11.568C853.254 10.192 853.494 9.032 853.974 8.088C854.454 7.128 855.126 6.408 855.99 5.928C856.854 5.432 857.846 5.184 858.966 5.184C860.742 5.184 862.11 5.712 863.07 6.768C864.03 7.824 864.51 9.216 864.51 10.944V12.24H855.342V13.128C855.342 14.2 855.678 15.056 856.35 15.696C857.038 16.336 857.926 16.656 859.014 16.656C859.974 16.656 860.774 16.416 861.414 15.936C862.054 15.44 862.414 14.792 862.494 13.992H864.438C864.374 14.84 864.102 15.584 863.622 16.224C863.158 16.864 862.526 17.36 861.726 17.712C860.942 18.064 860.054 18.24 859.062 18.24ZM855.342 10.728V10.848H862.518V10.728C862.518 9.304 862.19 8.288 861.534 7.68C860.894 7.056 860.046 6.744 858.99 6.744C857.774 6.744 856.862 7.104 856.254 7.824C855.646 8.544 855.342 9.512 855.342 10.728ZM876.159 18C875.439 18 874.927 17.824 874.623 17.472C874.319 17.104 874.167 16.64 874.167 16.08V7.104H871.167V5.424H874.167V1.296H876.183V5.424H879.735V7.104H876.183V16.344H879.591V18H876.159ZM890.022 18L886.518 5.424H888.438L891.054 15.24L891.222 16.056H891.366L891.534 15.24L894.126 5.424H896.286L898.878 15.24L899.046 16.056H899.19L899.358 15.24L901.974 5.424H903.918L900.39 18H897.918L895.47 8.832L895.23 7.824H895.134L894.918 8.832L892.446 18H890.022ZM916.281 18.24C914.345 18.24 912.905 17.672 911.961 16.536C911.017 15.384 910.537 13.8 910.521 11.784V11.688C910.521 9.48 911.049 7.848 912.105 6.792C913.161 5.72 914.553 5.184 916.281 5.184C917.993 5.184 919.377 5.72 920.433 6.792C921.489 7.848 922.017 9.48 922.017 11.688V11.784C922.017 13.8 921.545 15.384 920.601 16.536C919.657 17.672 918.217 18.24 916.281 18.24ZM916.281 16.56C917.417 16.56 918.305 16.24 918.945 15.6C919.601 14.96 919.929 14.072 919.929 12.936V10.488C919.929 9.4 919.601 8.528 918.945 7.872C918.289 7.2 917.401 6.864 916.281 6.864C915.161 6.864 914.265 7.2 913.593 7.872C912.937 8.528 912.609 9.4 912.609 10.488V12.936C912.609 14.072 912.937 14.96 913.593 15.6C914.249 16.24 915.145 16.56 916.281 16.56ZM930.3 18V7.368C930.3 6.76 930.476 6.288 930.828 5.952C931.196 5.6 931.676 5.424 932.268 5.424H937.404V7.104H932.316V18H930.3ZM945.507 18V0.503999H947.523V11.928L954.123 5.4H956.595L951.579 10.296L956.691 18H954.339L950.163 11.64L947.523 14.136V18H945.507Z"
            fill="white"
          />
        </svg>